<svg width="66" height="66" viewBox="0 0 66 66" fill="none" xmlns="http://www.w3.org/2000/svg">
<path d="M39.22 29.5703C37.13 27.4803 34.34 26.3203 31.37 26.3203C28.4 26.3203 25.61 27.4703 23.52 29.5703C21.43 31.6703 20.27 34.4503 20.27 37.4203C20.27 40.3903 21.42 43.1803 23.52 45.2703C25.61 47.3603 28.4 48.5203 31.37 48.5203C34.34 48.5203 37.13 47.3703 39.22 45.2703C43.54 40.9403 43.54 33.9003 39.22 29.5703ZM38.16 44.2103C36.35 46.0203 33.94 47.0203 31.37 47.0203C28.8 47.0203 26.39 46.0203 24.58 44.2103C22.77 42.4003 21.77 39.9903 21.77 37.4203C21.77 34.8503 22.77 32.4403 24.58 30.6303C26.39 28.8203 28.8 27.8203 31.37 27.8203C33.94 27.8203 36.35 28.8203 38.16 30.6303C41.9 34.3703 41.9 40.4603 38.16 44.2103Z" fill="#9FA5A9" style="fill:#9FA5A9;fill:color(display-p3 0.6235 0.6471 0.6627);fill-opacity:1;"/>
<path d="M57.54 58.0003L48.3 48.7603C47.44 47.9003 46.25 47.4903 45.05 47.6303L43.72 46.3003C48 40.3503 47.48 32.0003 42.14 26.6503C36.2 20.7103 26.54 20.7103 20.6 26.6503C14.66 32.5903 14.66 42.2503 20.6 48.1903C23.57 51.1603 27.47 52.6403 31.37 52.6403C34.49 52.6403 37.61 51.6703 40.25 49.7703L41.58 51.1003C41.44 52.3003 41.85 53.4903 42.71 54.3403L51.95 63.5903C52.72 64.3603 53.73 64.7503 54.75 64.7503C55.76 64.7503 56.78 64.3603 57.55 63.5903C58.3 62.8403 58.71 61.8503 58.71 60.7903C58.7 59.7403 58.28 58.7403 57.54 58.0003ZM21.65 47.1303C16.3 41.7803 16.3 33.0603 21.65 27.7103C24.33 25.0303 27.84 23.6903 31.36 23.6903C34.88 23.6903 38.39 25.0303 41.07 27.7103C46.42 33.0603 46.42 41.7803 41.07 47.1303C35.72 52.4803 27.01 52.4803 21.65 47.1303ZM56.48 62.5303C55.52 63.4903 53.96 63.4903 53.01 62.5303L43.77 53.2903C43.18 52.7003 42.93 51.8403 43.12 51.0103C43.18 50.7603 43.1 50.5003 42.92 50.3203L41.45 48.8503C41.46 48.8403 41.47 48.8203 41.48 48.8003C41.7 48.6003 41.94 48.4103 42.15 48.1903C42.37 47.9703 42.56 47.7403 42.76 47.5103C42.77 47.5003 42.79 47.5003 42.8 47.4903L44.27 48.9603C44.45 49.1403 44.71 49.2203 44.96 49.1603C45.79 48.9703 46.64 49.2203 47.24 49.8103L56.48 59.0603C56.94 59.5203 57.2 60.1403 57.2 60.8003C57.2 61.4503 56.94 62.0703 56.48 62.5303Z" fill="#9FA5A9" style="fill:#9FA5A9;fill:color(display-p3 0.6235 0.6471 0.6627);fill-opacity:1;"/>
<path d="M35.7202 33.0603C35.4302 32.7703 34.9502 32.7703 34.6602 33.0603L31.3702 36.3503L28.0802 33.0603C27.7902 32.7703 27.3102 32.7703 27.0202 33.0603C26.7302 33.3503 26.7302 33.8303 27.0202 34.1203L30.3102 37.4203L27.0202 40.7103C26.7302 41.0003 26.7302 41.4803 27.0202 41.7703C27.1702 41.9203 27.3602 41.9903 27.5502 41.9903C27.7402 41.9903 27.9302 41.9203 28.0802 41.7703L31.3702 38.4803L34.6602 41.7703C34.8102 41.9203 35.0002 41.9903 35.1902 41.9903C35.3802 41.9903 35.5702 41.9203 35.7202 41.7703C36.0102 41.4803 36.0102 41.0003 35.7202 40.7103L32.4302 37.4203L35.7202 34.1203C36.0102 33.8303 36.0102 33.3603 35.7202 33.0603Z" fill="#9FA5A9" style="fill:#9FA5A9;fill:color(display-p3 0.6235 0.6471 0.6627);fill-opacity:1;"/>
<path d="M23.9199 7.2002H42.8699C43.2799 7.2002 43.6199 6.8602 43.6199 6.4502C43.6199 6.0402 43.2799 5.7002 42.8699 5.7002H23.9199C23.5099 5.7002 23.1699 6.0402 23.1699 6.4502C23.1699 6.8602 23.5099 7.2002 23.9199 7.2002Z" fill="#9FA5A9" style="fill:#9FA5A9;fill:color(display-p3 0.6235 0.6471 0.6627);fill-opacity:1;"/>
<path d="M42.8802 9.66992H23.9102C23.5002 9.66992 23.1602 10.0099 23.1602 10.4199C23.1602 10.8299 23.5002 11.1699 23.9102 11.1699H42.8802C43.2902 11.1699 43.6302 10.8299 43.6302 10.4199C43.6302 10.0099 43.2902 9.66992 42.8802 9.66992Z" fill="#9FA5A9" style="fill:#9FA5A9;fill:color(display-p3 0.6235 0.6471 0.6627);fill-opacity:1;"/>
<path d="M42.8799 13.6797H32.9199C32.5099 13.6797 32.1699 14.0197 32.1699 14.4297C32.1699 14.8397 32.5099 15.1797 32.9199 15.1797H42.8799C43.2899 15.1797 43.6299 14.8397 43.6299 14.4297C43.6299 14.0197 43.2899 13.6797 42.8799 13.6797Z" fill="#9FA5A9" style="fill:#9FA5A9;fill:color(display-p3 0.6235 0.6471 0.6627);fill-opacity:1;"/>
<path d="M42.8799 17.6797H32.9199C32.5099 17.6797 32.1699 18.0197 32.1699 18.4297C32.1699 18.8397 32.5099 19.1797 32.9199 19.1797H42.8799C43.2899 19.1797 43.6299 18.8397 43.6299 18.4297C43.6299 18.0197 43.2899 17.6797 42.8799 17.6797Z" fill="#9FA5A9" style="fill:#9FA5A9;fill:color(display-p3 0.6235 0.6471 0.6627);fill-opacity:1;"/>
<path d="M45.2598 59.34H12.7898V56.86H41.2798C41.6898 56.86 42.0298 56.52 42.0298 56.11C42.0298 55.7 41.6898 55.36 41.2798 55.36H8.7998V12.98H18.2798C18.6898 12.98 19.0298 12.64 19.0298 12.23V2.75H47.7498V46.15C47.7498 46.56 48.0898 46.9 48.4998 46.9C48.9098 46.9 49.2498 46.56 49.2498 46.15V6.73H51.7298V49.76C51.7298 50.17 52.0698 50.51 52.4798 50.51C52.8898 50.51 53.2298 50.17 53.2298 49.76V5.98C53.2298 5.57 52.8898 5.23 52.4798 5.23H49.2498V2C49.2498 1.59 48.9098 1.25 48.4998 1.25H18.2898C18.0898 1.25 17.8998 1.33 17.7598 1.47L7.5198 11.7C7.3798 11.84 7.2998 12.03 7.2998 12.23V56.1C7.2998 56.51 7.6398 56.85 8.0498 56.85H11.2798V60.08C11.2798 60.49 11.6198 60.83 12.0298 60.83H45.2498C45.6598 60.83 45.9998 60.49 45.9998 60.08C45.9998 59.67 45.6698 59.34 45.2598 59.34ZM9.8598 11.48L17.5298 3.81V11.48H9.8598Z" fill="#9FA5A9" style="fill:#9FA5A9;fill:color(display-p3 0.6235 0.6471 0.6627);fill-opacity:1;"/>
</svg>
