<svg width="32" height="32" viewBox="0 0 32 32" fill="none" xmlns="http://www.w3.org/2000/svg">
<path d="M25.7867 19.32L24.4533 17.1067C24.1733 16.6133 23.92 15.68 23.92 15.1333V11.76C23.92 8.62667 22.08 5.92 19.4267 4.65333C18.7333 3.42667 17.4533 2.66667 15.9867 2.66667C14.5333 2.66667 13.2267 3.45333 12.5333 4.69333C9.93333 5.98667 8.13334 8.66667 8.13334 11.76V15.1333C8.13334 15.68 7.88 16.6133 7.6 17.0933L6.25334 19.32C5.72 20.2133 5.6 21.2 5.93334 22.1067C6.25334 23 7.01334 23.6933 8 24.0267C10.5867 24.9067 13.3067 25.3333 16.0267 25.3333C18.7467 25.3333 21.4667 24.9067 24.0533 24.04C24.9867 23.7333 25.7067 23.0267 26.0533 22.1067C26.4 21.1867 26.3067 20.1733 25.7867 19.32Z" fill="#1E4E58" style="fill:#1E4E58;fill:color(display-p3 0.3255 0.7490 0.7961);fill-opacity:1;"/>
<path d="M19.7733 26.68C19.2133 28.2267 17.7333 29.3333 16 29.3333C14.9467 29.3333 13.9067 28.9067 13.1733 28.1467C12.7467 27.7467 12.4267 27.2133 12.24 26.6667C12.4133 26.6933 12.5867 26.7067 12.7733 26.7333C13.08 26.7733 13.4 26.8133 13.72 26.84C14.48 26.9067 15.2533 26.9467 16.0267 26.9467C16.7867 26.9467 17.5467 26.9067 18.2933 26.84C18.5733 26.8133 18.8533 26.8 19.12 26.76C19.3333 26.7333 19.5467 26.7067 19.7733 26.68Z" fill="#1E4E58" style="fill:#1E4E58;fill:color(display-p3 0.3255 0.7490 0.7961);fill-opacity:1;"/>
</svg>
