<svg width="12" height="12" viewBox="0 0 12 12" fill="none" xmlns="http://www.w3.org/2000/svg">
<path d="M6.86349 1.75531L7.74349 3.51531C7.86349 3.76031 8.18349 3.99531 8.45349 4.04031L10.0485 4.30531C11.0685 4.47531 11.3085 5.21531 10.5735 5.94531L9.33349 7.18531C9.12349 7.39531 9.00849 7.80031 9.07349 8.09031L9.42849 9.62531C9.70849 10.8403 9.06349 11.3103 7.98849 10.6753L6.49349 9.79031C6.22349 9.63031 5.77849 9.63031 5.50349 9.79031L4.00849 10.6753C2.93849 11.3103 2.28849 10.8353 2.56849 9.62531L2.92349 8.09031C2.98849 7.80031 2.87349 7.39531 2.66349 7.18531L1.42349 5.94531C0.69349 5.21531 0.92849 4.47531 1.94849 4.30531L3.54349 4.04031C3.80849 3.99531 4.12849 3.76031 4.24849 3.51531L5.12849 1.75531C5.60849 0.800313 6.38849 0.800313 6.86349 1.75531Z" stroke="#9FA5A9" style="stroke:#9FA5A9;stroke:color(display-p3 0.6235 0.6471 0.6627);stroke-opacity:1;" stroke-width="0.7" stroke-linecap="round" stroke-linejoin="round"/>
</svg>
